<region>
sample=$SAMPLE_DIR/snare_supr64_a_01.wav
hivel=8
seq_length=2

<region>
sample=$SAMPLE_DIR/snare_supr64_b_01.wav
hivel=8
seq_length=2
seq_position=2

<region>
sample=$SAMPLE_DIR/snare_supr64_a_02.wav
lovel=9
hivel=16
seq_length=2

<region>
sample=$SAMPLE_DIR/snare_supr64_b_02.wav
lovel=9
hivel=16
seq_length=2
seq_position=2

<region>
sample=$SAMPLE_DIR/snare_supr64_a_03.wav
lovel=17
hivel=25
seq_length=2

<region>
sample=$SAMPLE_DIR/snare_supr64_b_03.wav
lovel=17
hivel=25
seq_length=2
seq_position=2

<region>
sample=$SAMPLE_DIR/snare_supr64_a_04.wav
lovel=26
hivel=33
seq_length=2

<region>
sample=$SAMPLE_DIR/snare_supr64_b_04.wav
lovel=26
hivel=33
seq_length=2
seq_position=2

<region>
sample=$SAMPLE_DIR/snare_supr64_a_05.wav
lovel=34
hivel=42
seq_length=2

<region>
sample=$SAMPLE_DIR/snare_supr64_b_05.wav
lovel=34
hivel=42
seq_length=2
seq_position=2

<region>
sample=$SAMPLE_DIR/snare_supr64_a_06.wav
lovel=43
hivel=49
seq_length=2

<region>
sample=$SAMPLE_DIR/snare_supr64_b_06.wav
lovel=43
hivel=49
seq_length=2
seq_position=2

<region>
sample=$SAMPLE_DIR/snare_supr64_a_07.wav
lovel=50
hivel=59
seq_length=2

<region>
sample=$SAMPLE_DIR/snare_supr64_b_07.wav
lovel=50
hivel=59
seq_length=2
seq_position=2

<region>
sample=$SAMPLE_DIR/snare_supr64_a_08.wav
lovel=60
hivel=67
seq_length=2

<region>
sample=$SAMPLE_DIR/snare_supr64_b_08.wav
lovel=60
hivel=67
seq_length=2
seq_position=2

<region>
sample=$SAMPLE_DIR/snare_supr64_a_09.wav
lovel=68
hivel=76
seq_length=2

<region>
sample=$SAMPLE_DIR/snare_supr64_b_09.wav
lovel=68
hivel=76
seq_length=2
seq_position=2

<region>
sample=$SAMPLE_DIR/snare_supr64_a_10.wav
lovel=77
hivel=84
seq_length=2

<region>
sample=$SAMPLE_DIR/snare_supr64_b_10.wav
lovel=77
hivel=84
seq_length=2
seq_position=2

<region>
sample=$SAMPLE_DIR/snare_supr64_a_11.wav
lovel=85
hivel=93
seq_length=2

<region>
sample=$SAMPLE_DIR/snare_supr64_b_11.wav
lovel=85
hivel=93
seq_length=2
seq_position=2

<region>
sample=$SAMPLE_DIR/snare_supr64_a_12.wav
lovel=94
hivel=101
seq_length=2

<region>
sample=$SAMPLE_DIR/snare_supr64_b_12.wav
lovel=94
hivel=101
seq_length=2
seq_position=2

<region>
sample=$SAMPLE_DIR/snare_supr64_a_13.wav
lovel=102
hivel=110
seq_length=2

<region>
sample=$SAMPLE_DIR/snare_supr64_b_13.wav
lovel=102
hivel=110
seq_length=2
seq_position=2

<region>
sample=$SAMPLE_DIR/snare_supr64_a_14.wav
lovel=111
hivel=118
seq_length=2

<region>
sample=$SAMPLE_DIR/snare_supr64_b_14.wav
lovel=111
hivel=118
seq_length=2
seq_position=2

<region>
sample=$SAMPLE_DIR/snare_supr64_a_15.wav
lovel=119
seq_length=2

<region>
sample=$SAMPLE_DIR/snare_supr64_b_15.wav
lovel=119
seq_length=2
seq_position=2
